<?xml version="1.0" encoding="utf-8"?>
<svg width="1024px" height="1024px" viewBox="0 0 1024 1024" xmlns="http://www.w3.org/2000/svg">
  <defs>
    <linearGradient id="iconGradient" x1="0%" y1="0%" x2="100%" y2="100%">
      <stop offset="0%" style="stop-color:#9370D8; stop-opacity:1" />
      <stop offset="45%" style="stop-color:#8A63D2; stop-opacity:1" />
      <stop offset="100%" style="stop-color:#8158CB; stop-opacity:1" />
    </linearGradient>
  </defs>

  <!-- Full background gradient -->
  <rect x="0" y="0" width="1024" height="1024" fill="url(#iconGradient)" />

  <!-- Simplified binoculars icon -->
  <g transform="matrix(16.4 0 0 16.4 122 77)">
    <g fill="#f8f8ff">
      <circle cx="33" cy="16" r="6"/>
      <circle cx="15" cy="16" r="6"/>
      <path d="M46.7 25l-15.3 3H16.7L1.4 25l4.3-7.9C6.8 15.2 8.8 14 11 14h26.2c2.2 0 4.2 1.2 5.3 3.1l4.2 7.9z"/>
      <circle cx="38" cy="30" r="10"/>
      <circle cx="10" cy="30" r="10"/>
      <circle cx="24" cy="28" r="5"/>
    </g>
    <circle cx="24" cy="28" r="2" fill="#9370D8"/>
    <g fill="#9370D8">
      <circle cx="38" cy="30" r="7"/>
      <circle cx="10" cy="30" r="7"/>
    </g>
    <path fill="#c48fd8" d="M41.7 27.7c-1-1.1-2.3-1.7-3.7-1.7-1.4 0-2.8.6-3.7 1.7-.4.4-.3 1 .1 1.4.4.4 1 .3 1.4-.1 1.2-1.3 3.3-1.3 4.5 0 .2.2.5.3.7.3.2 0 .5-.1.7-.3.4-.3.4-.9 0-1.3zM10 26c-1.4 0-2.8.6-3.7 1.7-.4.4-.3 1 .1 1.4.4.4 1 .3 1.4-.1 1.2-1.3 3.3-1.3 4.5 0 .2.2.5.3.7.3.2 0 .5-.1.7-.3.4-.4.4-1 .1-1.4-1-1-2.4-1.6-3.8-1.6z"/>
  </g>
</svg> 