<?xml version="1.0" encoding="utf-8"?>
<svg width="1024px" height="1024px" viewBox="0 0 1024 1024" xmlns="http://www.w3.org/2000/svg">
  <!-- Grayscale binoculars icon for iOS 18 tinted mode -->
  <g transform="matrix(16.4 0 0 16.4 122 77)">
    <!-- Main shapes in medium gray -->
    <g fill="#808080">
      <circle cx="33" cy="16" r="6"/>
      <circle cx="15" cy="16" r="6"/>
      <path d="M46.7 25l-15.3 3H16.7L1.4 25l4.3-7.9C6.8 15.2 8.8 14 11 14h26.2c2.2 0 4.2 1.2 5.3 3.1l4.2 7.9z"/>
      <circle cx="38" cy="30" r="10"/>
      <circle cx="10" cy="30" r="10"/>
      <circle cx="24" cy="28" r="5"/>
    </g>
    <!-- Inner details in lighter gray for contrast -->
    <circle cx="24" cy="28" r="2" fill="#B3B3B3"/>
    <g fill="#B3B3B3">
      <circle cx="38" cy="30" r="7"/>
      <circle cx="10" cy="30" r="7"/>
    </g>
    <!-- Accent details in lightest gray for maximum contrast -->
    <path fill="#E6E6E6" d="M41.7 27.7c-1-1.1-2.3-1.7-3.7-1.7-1.4 0-2.8.6-3.7 1.7-.4.4-.3 1 .1 1.4.4.4 1 .3 1.4-.1 1.2-1.3 3.3-1.3 4.5 0 .2.2.5.3.7.3.2 0 .5-.1.7-.3.4-.3.4-.9 0-1.3zM10 26c-1.4 0-2.8.6-3.7 1.7-.4.4-.3 1 .1 1.4.4.4 1 .3 1.4-.1 1.2-1.3 3.3-1.3 4.5 0 .2.2.5.3.7.3.2 0 .5-.1.7-.3.4-.4.4-1 .1-1.4-1-1-2.4-1.6-3.8-1.6z"/>
  </g>
</svg> 